<?xml version="1.0" standalone="no"?>
<!DOCTYPE svg PUBLIC "-//W3C//DTD SVG 20010904//EN"
 "http://www.w3.org/TR/2001/REC-SVG-20010904/DTD/svg10.dtd">
<svg version="1.0" xmlns="http://www.w3.org/2000/svg"
 width="400.000000pt" height="400.000000pt" viewBox="0 0 400.000000 400.000000"
 preserveAspectRatio="xMidYMid meet">
<g transform="translate(0.000000,400.000000) scale(0.100000,-0.100000)"
fill="#000000" stroke="none">
<path d="M2095 3833 c-81 -20 -237 -68 -269 -84 -22 -10 -50 -19 -63 -19 -14
0 -21 -4 -18 -10 4 -6 -16 -9 -52 -7 -36 1 -71 -4 -93 -15 -19 -8 -51 -20 -70
-26 -19 -5 -27 -10 -17 -11 36 -2 5 -21 -36 -22 -23 -1 -32 -4 -20 -6 12 -2
27 -10 33 -18 9 -10 4 -15 -22 -21 -18 -4 -36 -7 -41 -6 -4 1 -6 -4 -5 -10 2
-8 -7 -13 -22 -13 -17 0 -31 -11 -47 -35 -12 -19 -39 -53 -58 -74 -19 -21 -35
-44 -35 -50 0 -6 -18 -48 -40 -94 -22 -45 -40 -86 -40 -91 0 -4 -11 -29 -25
-54 -29 -55 -48 -121 -47 -162 1 -16 -3 -44 -9 -61 -5 -17 -11 -167 -13 -335
-4 -283 -3 -306 15 -341 10 -20 19 -50 19 -66 0 -48 12 -92 25 -92 6 0 12 14
13 33 0 17 3 61 7 97 3 36 10 157 15 270 15 313 35 507 61 576 52 141 254 382
380 451 80 45 165 68 196 54 32 -15 36 -14 29 4 -4 11 8 8 42 -11 26 -14 51
-30 57 -35 15 -15 81 -10 95 6 7 8 24 15 39 14 24 0 24 -1 6 -10 -15 -7 -11
-8 20 -6 30 1 60 -8 117 -37 43 -22 92 -40 110 -40 18 -1 38 -4 43 -7 6 -3 24
-6 40 -7 60 -4 133 -23 139 -38 3 -7 13 -14 23 -14 15 0 15 2 -3 15 -24 18 -2
20 29 3 12 -7 40 -13 62 -13 56 -1 156 -15 180 -25 11 -5 31 -11 45 -14 14 -3
43 -24 66 -45 44 -42 106 -135 97 -145 -4 -3 -1 -6 7 -6 10 0 10 -3 -1 -16
-11 -14 -10 -15 6 -12 11 1 20 -1 21 -7 2 -23 17 -73 36 -123 18 -46 19 -63
12 -140 -8 -85 -8 -97 1 -137 19 -86 34 -160 44 -220 6 -38 18 -110 27 -160
26 -141 29 -725 3 -709 -5 3 -9 -2 -9 -10 0 -8 5 -18 10 -21 16 -10 12 -25 -6
-25 -13 0 -14 -3 -5 -14 10 -11 9 -21 -3 -45 -18 -35 -19 -41 -7 -41 5 0 11
14 15 30 4 21 14 34 33 41 26 10 27 11 9 21 -11 6 -14 13 -8 17 6 4 12 23 14
44 1 20 6 37 10 37 5 0 3 8 -3 18 -8 12 -9 30 -4 48 5 16 7 35 6 43 -2 10 4
12 23 7 19 -5 26 -2 26 8 0 8 7 19 14 23 11 6 16 31 17 90 3 79 2 83 -24 103
-15 12 -32 30 -37 41 -9 16 -7 21 13 30 18 8 23 17 19 35 -2 13 0 24 4 24 5 0
20 -45 34 -100 13 -55 27 -95 31 -88 30 58 37 259 10 292 -6 7 -8 22 -4 31 4
13 3 16 -6 11 -8 -6 -11 -2 -9 10 2 14 -4 20 -23 22 -39 5 -50 55 -49 224 2
340 -19 464 -111 635 -139 261 -181 321 -252 361 -28 16 -65 41 -80 56 -15 14
-31 26 -36 26 -4 0 -17 11 -28 24 -11 13 -43 31 -69 41 -119 43 -169 65 -167
74 2 6 -15 16 -38 22 -28 9 -38 17 -34 27 4 12 -13 13 -117 8 -68 -4 -134 -7
-148 -8 -14 -1 -43 1 -65 4 -22 3 -49 4 -60 1z m440 -53 c8 -13 -5 -13 -25 0
-13 8 -13 10 2 10 9 0 20 -4 23 -10z m-1140 -230 c-3 -5 -11 -10 -16 -10 -6 0
-7 5 -4 10 3 6 11 10 16 10 6 0 7 -4 4 -10z"/>
<path d="M2890 2840 c0 -5 5 -10 10 -10 6 0 10 5 10 10 0 6 -4 10 -10 10 -5 0
-10 -4 -10 -10z"/>
<path d="M2638 2663 c41 -8 17 -28 -42 -34 -32 -4 -63 -12 -69 -18 -8 -8 -8
-11 2 -11 10 0 11 -3 2 -14 -10 -11 -8 -15 6 -19 42 -12 85 -18 199 -26 134
-10 204 -27 204 -48 0 -7 12 -18 27 -24 20 -7 24 -12 14 -18 -18 -12 -4 -54
15 -47 9 3 12 1 9 -4 -3 -6 -14 -10 -23 -10 -14 0 -13 -2 3 -13 13 -11 15 -16
6 -22 -8 -4 -25 5 -45 24 -21 20 -54 37 -87 46 -64 17 -97 18 -52 2 36 -14 58
-32 28 -24 -72 20 -228 16 -290 -8 -18 -7 -18 -6 -5 8 8 8 35 22 59 30 58 19
40 27 -32 15 -50 -9 -61 -8 -78 8 -15 13 -24 15 -42 7 -12 -6 -36 -8 -53 -6
-43 7 -57 -15 -55 -85 1 -38 7 -59 16 -65 17 -9 20 -37 5 -37 -5 0 -10 5 -10
10 0 6 -7 10 -15 10 -9 0 -12 -6 -8 -17 4 -11 3 -14 -5 -9 -7 4 -12 2 -12 -3
0 -6 4 -11 9 -11 5 0 12 -15 15 -32 3 -18 24 -53 46 -77 22 -24 40 -49 40 -55
0 -15 57 -70 73 -72 7 0 17 -2 24 -2 16 -3 43 -60 43 -93 0 -34 -53 -99 -81
-99 -21 0 -27 38 -9 56 14 14 -4 29 -43 38 -21 5 -27 4 -21 -5 5 -9 -1 -10
-24 -6 -24 5 -30 3 -26 -8 3 -7 -4 -20 -15 -27 -12 -7 -21 -18 -21 -24 0 -6
-7 -17 -15 -24 -8 -7 -15 -16 -15 -21 0 -5 7 -9 15 -9 8 0 15 -7 15 -15 0 -9
13 -18 31 -22 18 -3 35 -15 41 -29 9 -20 26 -30 68 -39 8 -2 16 -9 18 -14 2
-6 14 -11 27 -11 16 0 26 -9 35 -30 7 -16 19 -30 26 -30 8 0 16 -10 19 -23 4
-13 18 -28 33 -34 l27 -11 -33 -1 c-18 -1 -53 4 -78 10 -37 10 -48 9 -69 -5
-14 -9 -25 -22 -25 -29 0 -16 -74 -39 -104 -31 -14 3 -27 1 -31 -6 -5 -8 14
-11 71 -10 156 2 154 2 154 -19 0 -47 -25 -66 -49 -37 -11 13 -15 12 -33 -6
-15 -15 -28 -19 -49 -14 -21 4 -29 2 -29 -8 0 -16 22 -26 57 -26 23 0 24 -2
18 -39 l-6 -39 66 -7 c64 -6 69 -5 109 23 22 16 45 29 51 28 5 0 11 8 14 19 2
11 12 31 22 44 10 13 16 27 13 32 -7 12 24 69 37 69 7 0 9 12 5 34 -6 29 -3
35 14 41 25 8 26 22 0 30 -11 3 -28 16 -37 29 -10 12 -24 21 -30 19 -7 -3 -23
3 -35 11 -12 9 -31 16 -41 16 -29 0 -77 39 -77 61 0 16 -5 19 -20 14 -35 -11
-23 23 23 68 82 81 85 130 11 241 -39 61 -44 73 -35 94 6 13 8 34 5 48 -6 24
1 29 35 24 11 -1 12 2 5 12 -6 7 -11 26 -12 42 -1 16 -8 36 -15 44 -10 13 -9
15 6 9 9 -3 17 -2 17 2 0 12 92 20 105 10 16 -11 93 -31 145 -36 37 -4 49 -10
62 -33 14 -25 20 -27 64 -24 26 1 59 -3 73 -10 14 -7 32 -11 39 -9 6 3 12 0
12 -7 0 -6 5 -8 10 -5 6 3 10 15 10 25 0 10 7 23 16 28 22 12 8 62 -17 62 -23
0 -37 25 -31 56 3 19 11 24 33 24 34 0 34 0 13 48 -17 37 -20 45 -22 70 -1 7
-34 44 -73 83 -69 70 -71 71 -107 63 -38 -9 -120 -9 -227 0 -33 2 -50 2 -37
-1z m69 -9 c-3 -3 -12 -4 -19 -1 -8 3 -5 6 6 6 11 1 17 -2 13 -5z m-79 -293
c4 -22 1 -23 -29 -17 -43 8 -48 15 -24 32 27 20 49 14 53 -15z m72 19 c0 -5
-9 -10 -19 -10 -11 0 -23 5 -26 10 -4 6 5 10 19 10 14 0 26 -4 26 -10z m145
-38 c-3 -3 -11 0 -18 7 -9 10 -8 11 6 5 10 -3 15 -9 12 -12z m-430 -122 c3 -5
1 -10 -4 -10 -6 0 -11 5 -11 10 0 6 2 10 4 10 3 0 8 -4 11 -10z"/>
<path d="M1690 2629 c-12 -8 -10 -9 9 -4 16 5 21 4 17 -4 -4 -6 -22 -11 -41
-11 -19 0 -58 -5 -87 -11 l-53 -12 100 -22 c98 -22 124 -23 95 -4 -10 6 3 8
40 3 40 -4 51 -3 40 5 -12 9 -10 11 10 11 22 1 21 3 -10 14 -19 6 -34 17 -32
24 1 7 -6 12 -15 12 -10 0 -27 3 -38 5 -11 3 -27 0 -35 -6z"/>
<path d="M1728 2463 l23 -4 -23 -18 c-13 -10 -48 -23 -79 -30 -31 -6 -91 -33
-135 -59 -70 -41 -76 -47 -52 -50 15 -2 40 4 56 12 16 8 32 12 36 9 3 -4 6 3
6 15 0 27 14 28 38 4 16 -16 30 -17 157 -9 174 10 179 11 140 43 l-30 25 27
-10 c26 -10 27 -9 16 9 -22 35 -101 70 -154 69 -27 -1 -39 -4 -26 -6z m-58
-71 c0 -14 -11 -21 -26 -15 -21 8 -17 23 6 23 11 0 20 -4 20 -8z m138 -24 c-6
-18 -28 -21 -28 -4 0 9 7 16 16 16 9 0 14 -5 12 -12z m72 -8 c0 -13 -11 -13
-30 0 -12 8 -11 10 8 10 12 0 22 -4 22 -10z"/>
<path d="M996 2216 c10 -8 21 -12 24 -10 5 6 -21 24 -34 24 -6 0 -1 -6 10 -14z"/>
<path d="M970 2202 c0 -4 4 -13 9 -20 7 -11 9 -11 14 1 3 9 -1 18 -9 21 -8 3
-14 2 -14 -2z"/>
<path d="M2894 2135 c10 -8 23 -12 28 -9 14 9 -2 24 -25 24 -21 -1 -21 -1 -3
-15z"/>
<path d="M1997 1894 c-4 -4 -7 -18 -7 -30 0 -22 3 -23 53 -17 65 7 79 19 41
33 -43 17 -78 22 -87 14z"/>
<path d="M3326 1765 c-9 -26 -7 -32 5 -12 6 10 9 21 6 23 -2 3 -7 -2 -11 -11z"/>
<path d="M2202 1728 c-7 -7 -12 -16 -12 -20 0 -12 28 -10 36 3 10 17 -10 31
-24 17z"/>
<path d="M1570 1585 c0 -7 -8 -19 -17 -24 -13 -7 -15 -13 -7 -18 7 -5 14 -17
17 -28 4 -16 5 -14 6 7 0 15 5 38 11 52 6 17 6 26 0 26 -6 0 -10 -7 -10 -15z"/>
<path d="M2862 1540 c0 -14 2 -19 5 -12 2 6 2 18 0 25 -3 6 -5 1 -5 -13z"/>
<path d="M1725 1440 c-8 -12 113 -70 132 -63 11 4 9 9 -7 20 -11 8 -20 23 -20
34 0 16 -7 19 -49 19 -28 0 -53 -4 -56 -10z"/>
<path d="M1977 1385 c-16 -12 -16 -13 -1 -19 21 -8 36 5 26 21 -5 8 -12 8 -25
-2z"/>
<path d="M1910 1380 c0 -5 7 -10 16 -10 8 0 12 5 9 10 -3 6 -10 10 -16 10 -5
0 -9 -4 -9 -10z"/>
<path d="M3143 1364 c3 -3 -3 -15 -14 -27 -23 -25 -25 -54 -4 -54 9 0 15 10
15 23 0 12 7 29 15 37 14 15 10 27 -8 27 -6 0 -8 -3 -4 -6z"/>
<path d="M3110 1235 c0 -14 -4 -25 -10 -25 -5 0 -10 7 -10 15 0 8 -4 15 -10
15 -13 0 -13 -33 1 -47 8 -8 7 -13 -2 -18 -7 -5 -10 -4 -6 2 4 6 -2 13 -12 16
-15 4 -18 -1 -17 -27 1 -17 -5 -37 -14 -44 -8 -8 -10 -11 -3 -8 18 9 23 -7 7
-22 -11 -10 -14 -10 -15 0 0 7 -4 3 -9 -9 -5 -13 -15 -23 -22 -23 -9 0 -9 3 2
10 12 7 12 10 1 10 -7 0 -22 -11 -33 -25 -11 -14 -28 -25 -38 -25 -10 0 -22
-4 -25 -10 -10 -16 -25 -12 -25 6 0 13 -3 14 -14 5 -12 -10 -15 -5 -21 29 -4
26 -3 46 5 54 7 10 8 16 0 21 -9 6 -14 -1 -11 -17 2 -14 -26 -8 -39 7 -10 12
-16 13 -26 4 -8 -6 -14 -16 -14 -21 0 -5 -9 -17 -20 -26 -14 -12 -17 -21 -11
-31 8 -12 13 -9 28 17 10 18 24 32 31 32 15 0 16 -32 0 -48 -9 -9 -8 -12 5
-12 9 0 17 8 17 17 0 9 2 14 5 11 4 -3 3 -17 0 -31 -8 -29 -33 -43 -49 -27 -5
5 -17 10 -26 10 -13 -1 -13 -2 1 -13 9 -7 21 -22 28 -34 10 -19 9 -23 -3 -23
-8 0 -21 -8 -28 -19 -7 -10 -22 -20 -33 -22 -13 -3 -20 -13 -22 -31 -1 -15 -9
-37 -17 -51 -9 -13 -13 -27 -9 -32 5 -4 3 -6 -2 -2 -15 8 -26 -1 -55 -45 -14
-21 -30 -38 -37 -38 -7 0 -16 -6 -20 -14 -11 -18 -82 -58 -93 -51 -4 3 -11 -2
-14 -10 -3 -8 -9 -15 -13 -14 -34 6 -61 -3 -59 -18 1 -12 -5 -17 -16 -15 -11
2 -18 -3 -18 -12 0 -19 -56 -31 -75 -16 -11 9 -15 9 -15 1 0 -6 -13 -11 -28
-11 -15 0 -32 -4 -38 -10 -6 -6 -26 -4 -56 5 -25 7 -48 11 -51 9 -3 -3 -23 4
-45 15 -22 11 -42 18 -45 15 -7 -7 -96 39 -126 65 -13 12 -28 21 -32 21 -4 0
-20 11 -36 24 -15 13 -39 27 -52 31 l-24 7 22 -31 c13 -17 28 -30 34 -29 12 2
21 -3 122 -68 142 -91 248 -120 390 -109 118 9 122 9 164 -14 12 -7 32 -11 42
-8 11 3 36 1 56 -5 27 -7 33 -12 22 -19 -8 -5 -25 -9 -39 -9 -20 0 -22 -2 -10
-10 8 -6 34 -7 58 -4 l43 6 -26 -68 c-14 -37 -30 -74 -37 -81 -8 -10 -8 -19 0
-36 29 -56 40 -105 32 -143 -5 -21 -6 -42 -3 -46 8 -14 67 -5 80 12 16 21 35
0 37 -40 l1 -31 89 3 90 3 8 30 c11 34 3 220 -12 280 -17 72 7 59 30 -17 28
-91 56 -142 86 -159 13 -7 24 -16 24 -20 0 -5 20 -30 45 -56 24 -26 45 -51 45
-55 0 -8 90 -12 90 -4 0 2 -29 33 -65 69 -76 76 -84 101 -69 194 6 38 4 45
-29 80 -41 43 -41 56 -1 24 43 -34 40 -16 -5 31 -22 24 -41 49 -41 56 0 15
-36 52 -50 52 -7 0 -7 -6 -1 -19 10 -17 9 -18 -14 -7 -29 13 -33 42 -7 49 16
4 16 5 0 6 -22 1 -23 22 -3 167 17 128 40 213 61 221 7 3 14 13 14 23 0 19 30
50 49 50 7 0 9 5 6 10 -3 6 -1 10 5 10 7 0 10 6 7 14 -3 8 2 22 12 33 10 10
21 31 25 46 3 15 11 27 17 27 6 0 7 5 4 10 -3 6 0 10 7 10 9 0 14 17 16 50 2
28 1 50 -2 50 -4 0 -6 -11 -6 -25z m-142 -840 c-3 -3 -9 2 -12 12 -6 14 -5 15
5 6 7 -7 10 -15 7 -18z"/>
<path d="M2697 1030 c-3 -11 -1 -23 4 -26 5 -3 9 6 9 20 0 31 -6 34 -13 6z"/>
<path d="M2280 1020 c0 -5 5 -10 11 -10 5 0 7 5 4 10 -3 6 -8 10 -11 10 -2 0
-4 -4 -4 -10z"/>
<path d="M1391 990 c-1 -18 38 -55 47 -44 4 4 1 9 -5 11 -7 3 -13 11 -13 19 0
9 -4 13 -9 10 -5 -4 -12 0 -14 6 -4 9 -6 8 -6 -2z"/>
<path d="M2701 981 c-12 -8 -12 -11 1 -25 14 -14 16 -13 14 9 0 14 -1 25 -1
25 0 0 -6 -4 -14 -9z"/>
<path d="M1476 882 c19 -33 34 -42 34 -19 0 6 -12 21 -27 31 l-26 19 19 -31z"/>
<path d="M1103 743 c-16 -6 -18 -99 -3 -108 6 -3 10 -16 10 -27 0 -56 123
-389 138 -373 4 4 -26 103 -54 175 -15 39 -44 174 -44 205 0 11 -9 37 -19 56
-11 21 -17 46 -14 58 6 22 5 22 -14 14z"/>
<path d="M3113 421 c34 -38 62 -105 51 -123 -3 -4 0 -8 5 -8 6 0 11 -5 11 -11
0 -6 -9 -8 -20 -4 -11 4 -20 2 -20 -4 0 -6 7 -11 15 -11 8 0 15 -5 15 -12 0
-7 11 -23 24 -37 24 -26 91 -120 128 -178 19 -31 23 -33 81 -33 34 0 57 4 51
8 -5 4 -18 29 -29 56 -10 28 -34 70 -52 95 -21 26 -33 52 -30 63 3 11 0 18 -9
18 -13 0 -94 94 -94 110 0 5 6 10 13 13 6 2 -3 11 -20 21 -18 9 -33 20 -33 24
0 10 -86 52 -106 52 -12 0 -6 -12 19 -39z"/>
<path d="M3044 430 c0 -13 4 -16 10 -10 7 7 7 13 0 20 -6 6 -10 3 -10 -10z"/>
<path d="M1025 218 c4 -18 14 -41 23 -51 12 -14 16 -37 16 -93 l0 -74 29 0
c27 0 28 2 22 37 -12 67 -27 107 -52 132 -13 13 -23 29 -22 35 3 26 -2 46 -11
46 -6 0 -8 -13 -5 -32z"/>
<path d="M2962 100 c0 -14 2 -19 5 -12 2 6 2 18 0 25 -3 6 -5 1 -5 -13z"/>
<path d="M215 81 c-3 -5 -1 -12 4 -15 5 -4 12 0 14 6 4 10 6 10 6 1 1 -7 9
-13 19 -14 10 0 12 -3 4 -6 -19 -8 -3 -23 24 -23 27 0 61 26 50 38 -4 3 -23 5
-43 3 -23 -2 -33 1 -29 8 5 7 -2 11 -18 11 -14 0 -27 -4 -31 -9z"/>
<path d="M770 19 c-19 -10 -28 -19 -20 -19 8 0 26 9 40 20 31 25 25 24 -20 -1z"/>
<path d="M2556 21 c-4 -5 3 -7 14 -4 23 6 26 13 6 13 -8 0 -17 -4 -20 -9z"/>
</g>
</svg>
